<svg width="82" height="23" viewBox="0 0 82 23" fill="none" xmlns="http://www.w3.org/2000/svg">
<path d="M8.00852 0.545454V18H4.31818V4.04829H4.21591L0.21875 6.55398V3.28125L4.53977 0.545454H8.00852ZM19.0007 18.3835C17.5348 18.3778 16.2734 18.017 15.2166 17.3011C14.1655 16.5852 13.3558 15.5483 12.7876 14.1903C12.2251 12.8324 11.9467 11.1989 11.9524 9.28977C11.9524 7.38636 12.2337 5.7642 12.7962 4.42329C13.3643 3.08239 14.174 2.0625 15.2251 1.36364C16.282 0.659091 17.5405 0.306818 19.0007 0.306818C20.4609 0.306818 21.7166 0.659091 22.7678 1.36364C23.8246 2.06818 24.6371 3.09091 25.2053 4.43182C25.7734 5.76705 26.0547 7.38636 26.049 9.28977C26.049 11.2045 25.7649 12.8409 25.1967 14.1989C24.6342 15.5568 23.8274 16.5937 22.7763 17.3097C21.7251 18.0256 20.4666 18.3835 19.0007 18.3835ZM19.0007 15.3239C20.0007 15.3239 20.799 14.821 21.3956 13.8153C21.9922 12.8097 22.2876 11.3011 22.282 9.28977C22.282 7.96591 22.1456 6.86364 21.8729 5.98295C21.6058 5.10227 21.2251 4.44034 20.7308 3.99716C20.2422 3.55398 19.6655 3.33239 19.0007 3.33239C18.0064 3.33239 17.2109 3.82955 16.6143 4.82386C16.0178 5.81818 15.7166 7.30682 15.7109 9.28977C15.7109 10.6307 15.8445 11.75 16.1115 12.6477C16.3842 13.5398 16.7678 14.2102 17.2621 14.6591C17.7564 15.1023 18.3359 15.3239 19.0007 15.3239ZM31.9574 15.6136L31.8636 16.5511C31.7898 17.3011 31.6477 18.0483 31.4375 18.7926C31.233 19.5426 31.017 20.2216 30.7898 20.8295C30.5682 21.4375 30.3892 21.9148 30.2528 22.2614H27.9006C27.9858 21.9261 28.1023 21.4574 28.25 20.8551C28.3977 20.2585 28.5369 19.5881 28.6676 18.8438C28.7983 18.0994 28.8807 17.3409 28.9148 16.5682L28.9574 15.6136H31.9574ZM41.3835 18.3835C39.9176 18.3778 38.6563 18.017 37.5994 17.3011C36.5483 16.5852 35.7386 15.5483 35.1705 14.1903C34.608 12.8324 34.3295 11.1989 34.3352 9.28977C34.3352 7.38636 34.6165 5.7642 35.179 4.42329C35.7472 3.08239 36.5568 2.0625 37.608 1.36364C38.6648 0.659091 39.9233 0.306818 41.3835 0.306818C42.8438 0.306818 44.0994 0.659091 45.1506 1.36364C46.2074 2.06818 47.0199 3.09091 47.5881 4.43182C48.1563 5.76705 48.4375 7.38636 48.4318 9.28977C48.4318 11.2045 48.1477 12.8409 47.5795 14.1989C47.017 15.5568 46.2102 16.5937 45.1591 17.3097C44.108 18.0256 42.8494 18.3835 41.3835 18.3835ZM41.3835 15.3239C42.3835 15.3239 43.1818 14.821 43.7784 13.8153C44.375 12.8097 44.6705 11.3011 44.6648 9.28977C44.6648 7.96591 44.5284 6.86364 44.2557 5.98295C43.9886 5.10227 43.608 4.44034 43.1136 3.99716C42.625 3.55398 42.0483 3.33239 41.3835 3.33239C40.3892 3.33239 39.5938 3.82955 38.9972 4.82386C38.4006 5.81818 38.0994 7.30682 38.0938 9.28977C38.0938 10.6307 38.2273 11.75 38.4943 12.6477C38.767 13.5398 39.1506 14.2102 39.6449 14.6591C40.1392 15.1023 40.7188 15.3239 41.3835 15.3239ZM57.907 18.3835C56.4411 18.3778 55.1797 18.017 54.1229 17.3011C53.0717 16.5852 52.2621 15.5483 51.6939 14.1903C51.1314 12.8324 50.853 11.1989 50.8587 9.28977C50.8587 7.38636 51.1399 5.7642 51.7024 4.42329C52.2706 3.08239 53.0803 2.0625 54.1314 1.36364C55.1882 0.659091 56.4467 0.306818 57.907 0.306818C59.3672 0.306818 60.6229 0.659091 61.674 1.36364C62.7308 2.06818 63.5433 3.09091 64.1115 4.43182C64.6797 5.76705 64.9609 7.38636 64.9553 9.28977C64.9553 11.2045 64.6712 12.8409 64.103 14.1989C63.5405 15.5568 62.7337 16.5937 61.6825 17.3097C60.6314 18.0256 59.3729 18.3835 57.907 18.3835ZM57.907 15.3239C58.907 15.3239 59.7053 14.821 60.3018 13.8153C60.8984 12.8097 61.1939 11.3011 61.1882 9.28977C61.1882 7.96591 61.0518 6.86364 60.7791 5.98295C60.5121 5.10227 60.1314 4.44034 59.6371 3.99716C59.1484 3.55398 58.5717 3.33239 57.907 3.33239C56.9126 3.33239 56.1172 3.82955 55.5206 4.82386C54.924 5.81818 54.6229 7.30682 54.6172 9.28977C54.6172 10.6307 54.7507 11.75 55.0178 12.6477C55.2905 13.5398 55.674 14.2102 56.1683 14.6591C56.6626 15.1023 57.2422 15.3239 57.907 15.3239ZM74.4304 18.3835C72.9645 18.3778 71.7031 18.017 70.6463 17.3011C69.5952 16.5852 68.7855 15.5483 68.2173 14.1903C67.6548 12.8324 67.3764 11.1989 67.3821 9.28977C67.3821 7.38636 67.6634 5.7642 68.2259 4.42329C68.794 3.08239 69.6037 2.0625 70.6548 1.36364C71.7116 0.659091 72.9702 0.306818 74.4304 0.306818C75.8906 0.306818 77.1463 0.659091 78.1974 1.36364C79.2543 2.06818 80.0668 3.09091 80.6349 4.43182C81.2031 5.76705 81.4844 7.38636 81.4787 9.28977C81.4787 11.2045 81.1946 12.8409 80.6264 14.1989C80.0639 15.5568 79.2571 16.5937 78.206 17.3097C77.1548 18.0256 75.8963 18.3835 74.4304 18.3835ZM74.4304 15.3239C75.4304 15.3239 76.2287 14.821 76.8253 13.8153C77.4219 12.8097 77.7173 11.3011 77.7116 9.28977C77.7116 7.96591 77.5753 6.86364 77.3026 5.98295C77.0355 5.10227 76.6548 4.44034 76.1605 3.99716C75.6719 3.55398 75.0952 3.33239 74.4304 3.33239C73.4361 3.33239 72.6406 3.82955 72.044 4.82386C71.4474 5.81818 71.1463 7.30682 71.1406 9.28977C71.1406 10.6307 71.2741 11.75 71.5412 12.6477C71.8139 13.5398 72.1974 14.2102 72.6918 14.6591C73.1861 15.1023 73.7656 15.3239 74.4304 15.3239Z" fill="black"/>
</svg>
